<?xml version="1.0" encoding="UTF-8" standalone="no"?>
<svg
   height="24"
   width="24"
   version="1.1"
   id="svg4"
   sodipodi:docname="note-warning.svg"
   inkscape:version="1.1.1 (3bf5ae0d25, 2021-09-20)"
   xmlns:inkscape="http://www.inkscape.org/namespaces/inkscape"
   xmlns:sodipodi="http://sodipodi.sourceforge.net/DTD/sodipodi-0.dtd"
   xmlns="http://www.w3.org/2000/svg"
   xmlns:svg="http://www.w3.org/2000/svg">
  <defs
     id="defs8" />
  <sodipodi:namedview
     id="namedview6"
     pagecolor="#ffffff"
     bordercolor="#666666"
     borderopacity="1.0"
     inkscape:pageshadow="2"
     inkscape:pageopacity="0.0"
     inkscape:pagecheckerboard="0"
     showgrid="false"
     inkscape:zoom="32.333333"
     inkscape:cx="12.015464"
     inkscape:cy="12"
     inkscape:window-width="1920"
     inkscape:window-height="1011"
     inkscape:window-x="0"
     inkscape:window-y="0"
     inkscape:window-maximized="1"
     inkscape:current-layer="svg4" />
  <path
     d="m11.92 3.3047a1.3872 1.3872 0 0 0 -1.129 0.6933l-8.6055 14.922a1.3872 1.3872 0 0 0 1.2012 2.08l17.226-0.008a1.3872 1.3872 0 0 0 1.201 -2.08l-8.619-14.916a1.3872 1.3872 0 0 0 -1.136 -0.6913 1.3872 1.3872 0 0 0 -0.139 0zm0.08 4.6953a1 1 0 0 1 1 1v6a1 1 0 0 1 -1 1 1 1 0 0 1 -1 -1v-6a1 1 0 0 1 1 -1zm0 9a1 1 0 0 1 1 1 1 1 0 0 1 -1 1 1 1 0 0 1 -1 -1 1 1 0 0 1 1 -1z"
     id="path2"
     style="fill:#000000;fill-opacity:1" />
</svg>
