<?xml version="1.0" encoding="UTF-8" standalone="no"?>
<svg
   height="24"
   width="24"
   version="1.1"
   id="svg20"
   sodipodi:docname="note-bug.svg"
   inkscape:version="1.1.1 (3bf5ae0d25, 2021-09-20)"
   xmlns:inkscape="http://www.inkscape.org/namespaces/inkscape"
   xmlns:sodipodi="http://sodipodi.sourceforge.net/DTD/sodipodi-0.dtd"
   xmlns="http://www.w3.org/2000/svg"
   xmlns:svg="http://www.w3.org/2000/svg">
  <defs
     id="defs24" />
  <sodipodi:namedview
     id="namedview22"
     pagecolor="#ffffff"
     bordercolor="#666666"
     borderopacity="1.0"
     inkscape:pageshadow="2"
     inkscape:pageopacity="0.0"
     inkscape:pagecheckerboard="0"
     showgrid="false"
     inkscape:zoom="32.333333"
     inkscape:cx="12.015464"
     inkscape:cy="12"
     inkscape:window-width="1920"
     inkscape:window-height="1011"
     inkscape:window-x="0"
     inkscape:window-y="0"
     inkscape:window-maximized="1"
     inkscape:current-layer="g18" />
  <g
     id="g18">
    <path
       d="m7 8v6.697 0.303h0.0078a5 6.3027 0 0 0 3.9922 5.867v-6.867h2v6.871a5 6.3027 0 0 0 3.988 -5.871h0.012v-0.303-6.697h-10z"
       id="path2"
       style="fill:#000000;fill-opacity:1" />
    <path
       d="m12 3a4 4 0 0 0 -4 4h8a4 4 0 0 0 -4 -4z"
       id="path4"
       style="fill:#000000;fill-opacity:1" />
    <path
       d="m16 12h6v1h-6z"
       id="path6"
       style="fill:#000000;fill-opacity:1" />
    <path
       d="m9.2045 16.361h6v1h-6z"
       transform="rotate(-30)"
       id="path8"
       style="fill:#000000;fill-opacity:1" />
    <path
       d="m21.704 4.2894h6v1h-6z"
       transform="rotate(30)"
       id="path10"
       style="fill:#000000;fill-opacity:1" />
    <path
       d="m2 12h6v1h-6z"
       id="path12"
       style="fill:#000000;fill-opacity:1" />
    <path
       d="m5.5801 4.3612h6v1h-6z"
       transform="rotate(30)"
       id="path14"
       style="fill:#000000;fill-opacity:1" />
    <path
       d="m-6.9199 16.289h6v1h-6z"
       transform="rotate(-30)"
       id="path16"
       style="fill:#000000;fill-opacity:1" />
  </g>
</svg>
